<svg viewBox="0 0 274.4272 241.8882" width="62" height="54.648622294000006" xmlns="http://www.w3.org/2000/svg" xmlns:xlink="http://www.w3.org/1999/xlink" preserveAspectRatio="none"><defs></defs><g opacity="1" transform="rotate(0 0 0)">
        <svg width="274.4272" height="241.8882" x="0" y="0" version="1.1" preserveAspectRatio="none" viewBox="1.1999998092651367 6.8979811668396 97.79999542236328 86.20404052734375" fill="#ff9f1c">
          <g transform="matrix(1 0 0 1 0 0)" class="icon"><path d="M95.8,57.1v-8.6c0-3.2-2.6-5.9-5.9-5.9L82.2,42l-6.9-10.4c-0.1-0.1-0.1-0.2-0.2-0.3c-1-1.5-2.8-2.5-4.7-2.5H55.7H27.9  c-2.9,0-5.4,2.3-5.7,5.1H3.6c-1.2,0-2.4,1-2.4,2.4c0,1.2,1,2.4,2.4,2.4h21.3c0.1,0,0.2,0,0.3,0c1.1,0.1,2,1.1,2,2.3  c0,1.2-1,2.4-2.4,2.4h-2.8H9.2c-1.2,0-2.4,1-2.4,2.4c0,1.2,1,2.4,2.4,2.4h12.8h10.5c1.2,0,2.4,1,2.4,2.4c0,1.2-1,2.4-2.4,2.4H22.1  H16c-1.2,0-2.4,1-2.4,2.4c0,1.2,1,2.4,2.4,2.4h6.1c-1.5,0.3-2.5,1.7-2.5,3.3V65c0,1.8,1.5,3.4,3.4,3.4h4.7c1,3.7,4.5,6.5,8.6,6.5  c4.1,0,7.5-2.7,8.6-6.5h10.8h18.5c1,3.7,4.5,6.5,8.6,6.5s7.5-2.7,8.6-6.5h4.2c1.8,0,3.4-1.5,3.4-3.4v-4.3  C98.9,58.7,97.5,57.2,95.8,57.1z M36.3,69.9c-2.5,0-4.5-2-4.5-4.5c0-2.5,2-4.5,4.5-4.5c2.5,0,4.5,2,4.5,4.5  C40.8,67.9,38.7,69.9,36.3,69.9z M82.8,69.9c-2.5,0-4.5-2-4.5-4.5c0-2.5,2-4.5,4.5-4.5s4.5,2,4.5,4.5C87.3,67.9,85.2,69.9,82.8,69.9  z M8.3,67.9v8c0,4.2,3.4,7.6,7.6,7.6h15.6v-3.3c0-0.6,0.7-1,1.2-0.7l10.5,6.1c0.5,0.3,0.5,1.1,0,1.4L32.7,93  c-0.5,0.3-1.2-0.1-1.2-0.7V89H15.9C8.7,89,2.8,83.1,2.8,75.9v-8H8.3z M86.3,32.1v-8c0-4.2-3.4-7.6-7.6-7.6H63.2v3.3  c0,0.6-0.7,1-1.2,0.7l-10.5-6.1c-0.5-0.3-0.5-1.1,0-1.4L61.9,7c0.5-0.3,1.2,0.1,1.2,0.7V11h15.6c7.2,0,13.1,5.9,13.1,13.1v8H86.3z"></path></g>
        </svg>
      </g></svg>